{
  "accessors": [
    {
      "bufferView": 2,
      "componentType": 5126,
      "count": 10217,
      "max": [
        0.015437999740242958,
        0.10185699909925461,
        0.05984099954366684
      ],
      "min": [
        -0.014276999980211258,
        -0.13031400740146637,
        -0.06363300234079361
      ],
      "type": "VEC3"
    },
    {
      "bufferView": 2,
      "byteOffset": 122604,
      "componentType": 5126,
      "count": 10217,
      "max": [
        1.0,
        1.0,
        1.0
      ],
      "min": [
        -1.0,
        -1.0,
        -1.0
      ],
      "type": "VEC3"
    },
    {
      "bufferView": 3,
      "componentType": 5126,
      "count": 10217,
      "max": [
        1.0,
        1.0,
        1.0,
        1.0
      ],
      "min": [
        -1.0,
        -1.0,
        -1.0,
        -1.0
      ],
      "type": "VEC4"
    },
    {
      "bufferView": 1,
      "componentType": 5126,
      "count": 10217,
      "max": [
        0.993461012840271,
        0.9960939884185791
      ],
      "min": [
        0.0039059999398887157,
        0.0039059999398887157
      ],
      "type": "VEC2"
    },
    {
      "bufferView": 0,
      "componentType": 5125,
      "count": 49152,
      "type": "SCALAR"
    },
    {
      "bufferView": 2,
      "byteOffset": 245208,
      "componentType": 5126,
      "count": 10975,
      "max": [
        0.014809000305831432,
        0.08297199755907059,
        0.08896099776029587
      ],
      "min": [
        -0.014809000305831432,
        -0.08789800107479095,
        0.0021780000533908606
      ],
      "type": "VEC3"
    },
    {
      "bufferView": 2,
      "byteOffset": 376908,
      "componentType": 5126,
      "count": 10975,
      "max": [
        1.0,
        1.0,
        1.0
      ],
      "min": [
        -1.0,
        -1.0,
        -1.0
      ],
      "type": "VEC3"
    },
    {
      "bufferView": 3,
      "byteOffset": 163472,
      "componentType": 5126,
      "count": 10975,
      "max": [
        1.0,
        0.9999268054962158,
        0.9999999403953552,
        1.0
      ],
      "min": [
        -0.9999615550041199,
        -0.9999129176139832,
        -0.9999999403953552,
        -1.0
      ],
      "type": "VEC4"
    },
    {
      "bufferView": 1,
      "byteOffset": 81736,
      "componentType": 5126,
      "count": 10975,
      "max": [
        0.9943000078201294,
        0.9960939884185791
      ],
      "min": [
        0.0039059999398887157,
        0.0039059999398887157
      ],
      "type": "VEC2"
    },
    {
      "bufferView": 0,
      "byteOffset": 196608,
      "componentType": 5125,
      "count": 48249,
      "type": "SCALAR"
    },
    {
      "bufferView": 2,
      "byteOffset": 508608,
      "componentType": 5126,
      "count": 3376,
      "max": [
        0.013117999769747257,
        0.11778800189495087,
        0.07180999964475632
      ],
      "min": [
        -0.013117999769747257,
        -0.09256300330162048,
        -0.16275599598884583
      ],
      "type": "VEC3"
    },
    {
      "bufferView": 2,
      "byteOffset": 549120,
      "componentType": 5126,
      "count": 3376,
      "max": [
        1.0,
        1.0,
        1.0
      ],
      "min": [
        -1.0,
        -1.0,
        -1.0
      ],
      "type": "VEC3"
    },
    {
      "bufferView": 3,
      "byteOffset": 339072,
      "componentType": 5126,
      "count": 3376,
      "max": [
        1.0,
        0.9964088797569275,
        1.0,
        1.0
      ],
      "min": [
        -0.999959409236908,
        -0.9999975562095642,
        -1.0,
        -1.0
      ],
      "type": "VEC4"
    },
    {
      "bufferView": 1,
      "byteOffset": 169536,
      "componentType": 5126,
      "count": 3376,
      "max": [
        0.9940500259399414,
        0.9960939884185791
      ],
      "min": [
        0.0039059999398887157,
        0.0038449999410659075
      ],
      "type": "VEC2"
    },
    {
      "bufferView": 0,
      "byteOffset": 389604,
      "componentType": 5125,
      "count": 15228,
      "type": "SCALAR"
    }
  ],
  "asset": {
    "extras": {
      "author": "HEAVY_PAYLOAD (https://sketchfab.com/heavypayload)",
      "license": "CC-BY-4.0 (http://creativecommons.org/licenses/by/4.0/)",
      "source": "https://sketchfab.com/3d-models/grock-p-16-1834b8260f29470fa377f59d23f8b348",
      "title": "GROCK  P-16"
    },
    "generator": "Sketchfab-15.49.0",
    "version": "2.0"
  },
  "bufferViews": [
    {
      "buffer": 0,
      "byteLength": 450516,
      "name": "floatBufferViews",
      "target": 34963
    },
    {
      "buffer": 0,
      "byteLength": 196544,
      "byteOffset": 450516,
      "byteStride": 8,
      "name": "floatBufferViews",
      "target": 34962
    },
    {
      "buffer": 0,
      "byteLength": 589632,
      "byteOffset": 647060,
      "byteStride": 12,
      "name": "floatBufferViews",
      "target": 34962
    },
    {
      "buffer": 0,
      "byteLength": 393088,
      "byteOffset": 1236692,
      "byteStride": 16,
      "name": "floatBufferViews",
      "target": 34962
    }
  ],
  "buffers": [
    {
      "byteLength": 1629780,
      "uri": "tf.bin"
    }
  ],
  "images": [
    {
      "uri": "textures/Default_baseColor.jpeg"
    },
    {
      "uri": "textures/Default_metallicRoughness.png"
    },
    {
      "uri": "textures/Default_normal.png"
    },
    {
      "uri": "textures/Default_046001_baseColor.jpeg"
    },
    {
      "uri": "textures/Default_046001_metallicRoughness.png"
    },
    {
      "uri": "textures/Default_046001_normal.png"
    },
    {
      "uri": "textures/Default_046002_baseColor.jpeg"
    },
    {
      "uri": "textures/Default_046002_metallicRoughness.png"
    },
    {
      "uri": "textures/Default_046002_normal.png"
    }
  ],
  "materials": [
    {
      "doubleSided": true,
      "name": "Default",
      "normalTexture": {
        "index": 2
      },
      "occlusionTexture": {
        "index": 1
      },
      "pbrMetallicRoughness": {
        "baseColorTexture": {
          "index": 0
        },
        "metallicRoughnessTexture": {
          "index": 1
        }
      }
    },
    {
      "doubleSided": true,
      "name": "Default_046001",
      "normalTexture": {
        "index": 5
      },
      "occlusionTexture": {
        "index": 4
      },
      "pbrMetallicRoughness": {
        "baseColorTexture": {
          "index": 3
        },
        "metallicRoughnessTexture": {
          "index": 4
        }
      }
    },
    {
      "doubleSided": true,
      "name": "Default_046002",
      "normalTexture": {
        "index": 8
      },
      "occlusionTexture": {
        "index": 7
      },
      "pbrMetallicRoughness": {
        "baseColorTexture": {
          "index": 6
        },
        "metallicRoughnessTexture": {
          "index": 7
        }
      }
    }
  ],
  "meshes": [
    {
      "name": "Object_0",
      "primitives": [
        {
          "attributes": {
            "NORMAL": 1,
            "POSITION": 0,
            "TANGENT": 2,
            "TEXCOORD_0": 3
          },
          "indices": 4,
          "material": 0,
          "mode": 4
        }
      ]
    },
    {
      "name": "Object_1",
      "primitives": [
        {
          "attributes": {
            "NORMAL": 6,
            "POSITION": 5,
            "TANGENT": 7,
            "TEXCOORD_0": 8
          },
          "indices": 9,
          "material": 1,
          "mode": 4
        }
      ]
    },
    {
      "name": "Object_2",
      "primitives": [
        {
          "attributes": {
            "NORMAL": 11,
            "POSITION": 10,
            "TANGENT": 12,
            "TEXCOORD_0": 13
          },
          "indices": 14,
          "material": 2,
          "mode": 4
        }
      ]
    }
  ],
  "nodes": [
    {
      "children": [
        1
      ],
      "matrix": [
        1.0,
        0.0,
        0.0,
        0.0,
        0.0,
        2.220446049250313e-16,
        -1.0,
        0.0,
        0.0,
        1.0,
        2.220446049250313e-16,
        0.0,
        0.0,
        0.0,
        0.0,
        1.0
      ],
      "name": "Sketchfab_model"
    },
    {
      "children": [
        2,
        3,
        4
      ],
      "name": "untitled2.obj.cleaner.materialmerger.gles"
    },
    {
      "mesh": 0,
      "name": "Object_2"
    },
    {
      "mesh": 1,
      "name": "Object_3"
    },
    {
      "mesh": 2,
      "name": "Object_4"
    }
  ],
  "samplers": [
    {
      "magFilter": 9729,
      "minFilter": 9987,
      "wrapS": 10497,
      "wrapT": 10497
    }
  ],
  "scene": 0,
  "scenes": [
    {
      "name": "Sketchfab_Scene",
      "nodes": [
        0
      ]
    }
  ],
  "textures": [
    {
      "sampler": 0,
      "source": 0
    },
    {
      "sampler": 0,
      "source": 1
    },
    {
      "sampler": 0,
      "source": 2
    },
    {
      "sampler": 0,
      "source": 3
    },
    {
      "sampler": 0,
      "source": 4
    },
    {
      "sampler": 0,
      "source": 5
    },
    {
      "sampler": 0,
      "source": 6
    },
    {
      "sampler": 0,
      "source": 7
    },
    {
      "sampler": 0,
      "source": 8
    }
  ]
}
